<?xml version="1.0" encoding="UTF-8" standalone="no"?><!DOCTYPE svg PUBLIC "-//W3C//DTD SVG 1.1//EN" "http://www.w3.org/Graphics/SVG/1.1/DTD/svg11.dtd"><svg width="100%" height="100%" viewBox="0 0 160 40" version="1.1" xmlns="http://www.w3.org/2000/svg" xmlns:xlink="http://www.w3.org/1999/xlink" xml:space="preserve" xmlns:serif="http://www.serif.com/" style="fill-rule:evenodd;clip-rule:evenodd;stroke-linejoin:round;stroke-miterlimit:1.41421;"><rect id="Small-header" serif:id="Small header" x="0" y="0" width="160" height="40" style="fill:none;"/><clipPath id="_clip1"><rect x="0" y="0" width="160" height="40"/></clipPath><g clip-path="url(#_clip1)"><g><circle cx="20" cy="20" r="20" style="fill:#fff;"/><path d="M25.596,6.404c5.336,2.202 9.096,7.459 9.096,13.587c0,8.109 -6.583,14.692 -14.692,14.692c-1.22,0 -5.994,4.402 -5.994,4.402l14.392,-23.357l-8.398,1.736l5.596,-11.06Z" style="fill:#06b8e0;"/><path d="M14.533,33.63c-5.405,-2.17 -9.225,-7.462 -9.225,-13.639c0,-8.109 6.583,-14.692 14.692,-14.692c0.467,0 6.933,-4.038 7.097,-4.001l-15.755,20.75l7.999,-1.483l-4.808,13.065Z" style="fill:#3b4747;"/></g><g><g transform="matrix(1,0,-0.176327,1,-27.5759,0)"><text x="90.232px" y="30.951px" style="font-family:'Candara-Italic', 'Candara', sans-serif;font-style:italic;font-size:34px;fill:#fff;stroke:#fff;stroke-width:1.09px;">S<tspan x="105.95px 123.345px 138.765px 150.283px " y="30.951px 30.951px 30.951px 30.951px ">park</tspan></text></g></g></g></svg>