<?xml version="1.0" encoding="UTF-8" standalone="no"?><!DOCTYPE svg PUBLIC "-//W3C//DTD SVG 1.1//EN" "http://www.w3.org/Graphics/SVG/1.1/DTD/svg11.dtd"><svg width="100%" height="100%" viewBox="0 0 161 41" version="1.1" xmlns="http://www.w3.org/2000/svg" xmlns:xlink="http://www.w3.org/1999/xlink" xml:space="preserve" xmlns:serif="http://www.serif.com/" style="fill-rule:evenodd;clip-rule:evenodd;stroke-linejoin:round;stroke-miterlimit:1.41421;"><rect id="Small-header--curves-" serif:id="Small header (curves)" x="0.842" y="0.647" width="160" height="40" style="fill:none;"/><clipPath id="_clip1"><rect x="0.842" y="0.647" width="160" height="40"/></clipPath><g clip-path="url(#_clip1)"><g><g id="Logo"><g><circle cx="20.842" cy="20.647" r="20" style="fill:#fff;"/></g><g><path d="M26.437,6.851c5.337,2.202 9.097,7.459 9.097,13.587c0,8.109 -6.584,14.692 -14.692,14.692c-1.22,0 -5.994,4.402 -5.994,4.402l14.392,-23.357l-8.398,1.736l5.595,-11.06Z" style="fill:#3ac7e5;"/></g><g><path d="M15.375,34.277c-5.405,-2.17 -9.225,-7.462 -9.225,-13.639c0,-8.109 6.583,-14.692 14.692,-14.692c0.467,0 6.933,-4.038 7.097,-4.001l-15.755,20.75l7.999,-1.483l-4.808,13.065Z" style="fill:#002d37;"/></g></g><g><g><path d="M73.96,26.004c-0.722,4.095 -3.933,6.142 -9.633,6.142c-2.081,0 -3.887,-0.238 -5.419,-0.714l1.041,-2.606c1.746,0.642 3.454,0.963 5.126,0.963c3.763,0 5.832,-1.063 6.206,-3.188c0.19,-1.073 -0.135,-1.992 -0.975,-2.755c-0.563,-0.51 -1.727,-1.19 -3.491,-2.042c-1.856,-0.897 -3.122,-1.722 -3.797,-2.474c-0.935,-1.04 -1.263,-2.346 -0.986,-3.918c0.288,-1.638 1.094,-2.972 2.415,-4.001c1.476,-1.151 3.376,-1.727 5.7,-1.727c2.634,0 4.408,0.172 5.321,0.515l-0.864,2.64c-1.588,-0.532 -3.329,-0.797 -5.221,-0.797c-2.845,0 -4.435,0.952 -4.77,2.855c-0.162,0.919 0.112,1.688 0.821,2.308c0.463,0.387 1.533,0.974 3.209,1.76c1.912,0.896 3.256,1.748 4.032,2.556c1.169,1.218 1.597,2.712 1.285,4.483Z" style="fill:#fff;fill-rule:nonzero;stroke:#fff;stroke-width:1px;"/><path d="M92.521,23.065c-0.422,2.391 -1.475,4.485 -3.159,6.284c-1.684,1.798 -3.743,2.698 -6.178,2.698c-2.036,0 -3.311,-0.366 -3.824,-1.096l-0.166,0c-0.543,3.077 -0.994,5.822 -1.353,8.234l-3.121,0c0.774,-2.944 1.542,-6.579 2.305,-10.907c0.941,-5.335 1.392,-9.463 1.354,-12.385l2.995,-0.415l-0.041,1.644l0.166,0c1.294,-1.251 3.142,-1.876 5.544,-1.876c2.114,0 3.649,0.772 4.605,2.316c0.957,1.544 1.247,3.378 0.873,5.503Zm-3.026,0.399c0.289,-1.638 0.105,-3.041 -0.553,-4.209c-0.657,-1.167 -1.766,-1.751 -3.326,-1.751c-1.993,0 -3.527,0.603 -4.603,1.809c-0.478,3.719 -0.953,6.912 -1.423,9.579c0.764,0.753 1.865,1.129 3.304,1.129c1.826,0 3.303,-0.642 4.432,-1.925c1.128,-1.284 1.851,-2.828 2.169,-4.632Z" style="fill:#fff;fill-rule:nonzero;stroke:#fff;stroke-width:1px;"/><path d="M106.469,31.598l-2.624,0.1c-0.037,-0.542 -0.013,-1.057 0.073,-1.544l-0.166,0c-1.58,1.24 -3.543,1.859 -5.89,1.859c-1.272,0 -2.302,-0.373 -3.089,-1.12c-0.787,-0.747 -1.059,-1.812 -0.815,-3.196c0.301,-1.704 1.262,-3.074 2.883,-4.109c1.621,-1.035 4.39,-1.58 8.307,-1.635c0.08,-0.266 0.15,-0.57 0.211,-0.913c0.24,-1.361 0.037,-2.269 -0.608,-2.723c-0.644,-0.454 -1.703,-0.68 -3.175,-0.68c-1.738,0 -3.486,0.215 -5.244,0.647l0.686,-2.291c1.744,-0.476 3.695,-0.714 5.854,-0.714c1.97,0 3.42,0.407 4.35,1.22c0.93,0.814 1.222,2.2 0.877,4.159c-0.092,0.52 -0.283,1.464 -0.574,2.831c-0.291,1.366 -0.476,2.277 -0.556,2.731c-0.355,2.014 -0.522,3.807 -0.5,5.378Zm-2.371,-3.22c0.241,-1.683 0.48,-3.193 0.716,-4.532c-2.08,0 -3.69,0.154 -4.83,0.464c-1.912,0.554 -3.006,1.611 -3.281,3.171c-0.266,1.505 0.664,2.258 2.789,2.258c1.826,0 3.361,-0.454 4.606,-1.361Z" style="fill:#fff;fill-rule:nonzero;stroke:#fff;stroke-width:1px;"/><path d="M122.644,15.827l-1.213,2.64c-0.802,-0.344 -1.575,-0.515 -2.316,-0.515c-2.081,0 -3.606,0.991 -4.575,2.972c-0.898,5.091 -1.492,8.649 -1.783,10.674l-2.938,0c0.796,-3.508 1.364,-6.231 1.706,-8.168c0.462,-2.623 0.645,-5.135 0.548,-7.537l2.979,-0.415c-0.004,1.218 -0.043,2.031 -0.115,2.441l0.133,0c1.505,-1.76 3.055,-2.64 4.649,-2.64c0.841,0 1.816,0.183 2.925,0.548Z" style="fill:#fff;fill-rule:nonzero;stroke:#fff;stroke-width:1px;"/><path d="M135.266,31.598l-3.902,0c0.069,-0.387 -0.744,-1.864 -2.439,-4.432c-1.736,-2.645 -2.886,-3.968 -3.45,-3.968l-0.117,0c-0.417,2.369 -0.85,5.169 -1.298,8.4l-2.922,0c0.858,-4.05 1.658,-8.179 2.399,-12.384c0.756,-4.284 1.24,-7.941 1.454,-10.974l3.217,-0.166c-0.544,2.391 -1.423,7.034 -2.639,13.929l0.116,0c0.366,0 1.678,-0.933 3.938,-2.798c2.261,-1.865 3.425,-2.991 3.493,-3.378l3.669,0c-0.062,0.354 -1.093,1.273 -3.092,2.756c-1.871,1.383 -3.561,2.523 -5.069,3.42l-0.024,0.133c1.189,1.04 2.64,2.822 4.354,5.345c1.605,2.38 2.376,3.752 2.312,4.117Z" style="fill:#fff;fill-rule:nonzero;stroke:#fff;stroke-width:1px;"/></g></g></g></g></svg>