<?xml version="1.0" encoding="UTF-8" standalone="no"?><!DOCTYPE svg PUBLIC "-//W3C//DTD SVG 1.1//EN" "http://www.w3.org/Graphics/SVG/1.1/DTD/svg11.dtd"><svg width="100%" height="100%" viewBox="0 0 129 33" version="1.1" xmlns="http://www.w3.org/2000/svg" xmlns:xlink="http://www.w3.org/1999/xlink" xml:space="preserve" xmlns:serif="http://www.serif.com/" style="fill-rule:evenodd;clip-rule:evenodd;stroke-linejoin:round;stroke-miterlimit:1.41421;"><rect id="Small-header--curves-" serif:id="Small header (curves)" x="0.842" y="0.647" width="128" height="32" style="fill:none;"/><clipPath id="_clip1"><rect x="0.842" y="0.647" width="128" height="32"/></clipPath><g clip-path="url(#_clip1)"><g><g id="Logo"><g><circle cx="16.842" cy="16.647" r="16" style="fill:#fff;"/></g><g><path d="M21.318,5.61c4.269,1.762 7.277,5.967 7.277,10.87c0,6.487 -5.266,11.753 -11.753,11.753c-0.976,0 -4.795,3.522 -4.795,3.522l11.514,-18.685l-6.719,1.388l4.476,-8.848Z" style="fill:#3ac7e5;"/></g><g><path d="M12.468,27.551c-4.324,-1.736 -7.38,-5.97 -7.38,-10.911c0,-6.487 5.267,-11.754 11.754,-11.754c0.374,0 5.546,-3.23 5.678,-3.201l-12.604,16.6l6.399,-1.186l-3.847,10.452Z" style="fill:#002d37;"/></g></g><g><g><path d="M59.336,20.932c-0.577,3.276 -3.146,4.914 -7.706,4.914c-1.665,0 -3.11,-0.19 -4.335,-0.571l0.832,-2.085c1.397,0.514 2.764,0.77 4.101,0.77c3.011,0 4.666,-0.85 4.965,-2.55c0.152,-0.858 -0.108,-1.593 -0.78,-2.204c-0.45,-0.407 -1.381,-0.952 -2.793,-1.634c-1.485,-0.717 -2.497,-1.377 -3.038,-1.979c-0.747,-0.832 -1.01,-1.877 -0.788,-3.134c0.231,-1.31 0.875,-2.377 1.932,-3.201c1.181,-0.921 2.701,-1.381 4.56,-1.381c2.107,0 3.526,0.137 4.257,0.412l-0.691,2.111c-1.271,-0.425 -2.663,-0.637 -4.177,-0.637c-2.276,0 -3.548,0.761 -3.817,2.284c-0.129,0.735 0.09,1.35 0.658,1.846c0.37,0.31 1.226,0.779 2.567,1.408c1.529,0.717 2.604,1.399 3.225,2.045c0.935,0.974 1.278,2.17 1.028,3.586Z" style="fill:#fff;fill-rule:nonzero;stroke:#fff;stroke-width:1px;"/><path d="M74.185,18.582c-0.337,1.912 -1.18,3.588 -2.527,5.027c-1.347,1.438 -2.995,2.158 -4.942,2.158c-1.63,0 -2.649,-0.292 -3.06,-0.877l-0.133,0c-0.434,2.462 -0.794,4.657 -1.082,6.588l-2.496,0c0.618,-2.356 1.233,-5.264 1.844,-8.726c0.752,-4.268 1.113,-7.57 1.083,-9.908l2.396,-0.332l-0.033,1.315l0.133,0c1.035,-1.001 2.513,-1.501 4.435,-1.501c1.691,0 2.919,0.618 3.684,1.853c0.765,1.235 0.998,2.703 0.698,4.403Zm-2.42,0.318c0.231,-1.31 0.083,-2.432 -0.443,-3.366c-0.526,-0.935 -1.413,-1.402 -2.661,-1.402c-1.594,0 -2.821,0.483 -3.682,1.448c-0.383,2.975 -0.763,5.529 -1.139,7.663c0.611,0.602 1.492,0.903 2.643,0.903c1.461,0 2.643,-0.513 3.546,-1.54c0.903,-1.027 1.481,-2.262 1.736,-3.706Z" style="fill:#fff;fill-rule:nonzero;stroke:#fff;stroke-width:1px;"/><path d="M85.343,25.408l-2.099,0.08c-0.03,-0.434 -0.01,-0.846 0.059,-1.235l-0.133,0c-1.264,0.991 -2.835,1.487 -4.712,1.487c-1.018,0 -1.842,-0.299 -2.471,-0.896c-0.63,-0.598 -0.847,-1.45 -0.652,-2.557c0.24,-1.363 1.009,-2.459 2.306,-3.287c1.297,-0.828 3.512,-1.264 6.646,-1.308c0.064,-0.213 0.12,-0.456 0.168,-0.731c0.192,-1.089 0.03,-1.815 -0.485,-2.178c-0.516,-0.363 -1.363,-0.544 -2.541,-0.544c-1.39,0 -2.788,0.172 -4.195,0.518l0.549,-1.833c1.395,-0.381 2.956,-0.571 4.683,-0.571c1.576,0 2.736,0.325 3.48,0.976c0.744,0.651 0.978,1.76 0.702,3.327c-0.074,0.416 -0.227,1.171 -0.46,2.264c-0.232,1.094 -0.381,1.822 -0.445,2.185c-0.284,1.611 -0.417,3.046 -0.4,4.303Zm-1.896,-2.576c0.193,-1.346 0.384,-2.555 0.573,-3.626c-1.665,0 -2.953,0.124 -3.864,0.372c-1.53,0.442 -2.406,1.288 -2.626,2.536c-0.212,1.205 0.532,1.807 2.232,1.807c1.461,0 2.689,-0.363 3.685,-1.089Z" style="fill:#fff;fill-rule:nonzero;stroke:#fff;stroke-width:1px;"/><path d="M98.283,12.791l-0.97,2.112c-0.642,-0.275 -1.26,-0.412 -1.853,-0.412c-1.664,0 -2.884,0.792 -3.66,2.377c-0.718,4.073 -1.193,6.92 -1.426,8.54l-2.351,0c0.637,-2.807 1.092,-4.985 1.365,-6.534c0.37,-2.099 0.517,-4.109 0.439,-6.03l2.383,-0.332c-0.004,0.974 -0.034,1.625 -0.092,1.952l0.106,0c1.205,-1.407 2.444,-2.111 3.719,-2.111c0.673,0 1.453,0.146 2.34,0.438Z" style="fill:#fff;fill-rule:nonzero;stroke:#fff;stroke-width:1px;"/><path d="M108.381,25.408l-3.121,0c0.055,-0.31 -0.596,-1.492 -1.951,-3.546c-1.389,-2.116 -2.309,-3.174 -2.761,-3.174l-0.093,0c-0.334,1.895 -0.68,4.135 -1.039,6.72l-2.337,0c0.686,-3.24 1.326,-6.543 1.919,-9.908c0.605,-3.426 0.992,-6.353 1.163,-8.779l2.574,-0.132c-0.435,1.912 -1.139,5.626 -2.111,11.143l0.093,0c0.292,0 1.342,-0.746 3.15,-2.238c1.808,-1.492 2.74,-2.393 2.794,-2.703l2.935,0c-0.05,0.283 -0.874,1.018 -2.474,2.205c-1.496,1.106 -2.848,2.018 -4.055,2.736l-0.018,0.106c0.951,0.832 2.112,2.258 3.482,4.276c1.285,1.904 1.902,3.002 1.85,3.294Z" style="fill:#fff;fill-rule:nonzero;stroke:#fff;stroke-width:1px;"/></g></g></g></g></svg>