<?xml version="1.0" encoding="UTF-8" standalone="no"?><!DOCTYPE svg PUBLIC "-//W3C//DTD SVG 1.1//EN" "http://www.w3.org/Graphics/SVG/1.1/DTD/svg11.dtd"><svg width="100%" height="100%" viewBox="0 0 129 33" version="1.1" xmlns="http://www.w3.org/2000/svg" xmlns:xlink="http://www.w3.org/1999/xlink" xml:space="preserve" xmlns:serif="http://www.serif.com/" style="fill-rule:evenodd;clip-rule:evenodd;stroke-linejoin:round;stroke-miterlimit:1.41421;"><rect id="Small-header--curves-" serif:id="Small header (curves)" x="0.694" y="0.254" width="128" height="32" style="fill:none;"/><g><g><g><g><path d="M59.189,20.54c-0.578,3.276 -3.147,4.914 -7.706,4.914c-1.665,0 -3.11,-0.191 -4.336,-0.571l0.833,-2.086c1.397,0.514 2.764,0.771 4.101,0.771c3.01,0 4.665,-0.85 4.965,-2.55c0.151,-0.859 -0.109,-1.594 -0.78,-2.205c-0.451,-0.407 -1.382,-0.952 -2.793,-1.634c-1.485,-0.717 -2.498,-1.376 -3.038,-1.978c-0.748,-0.833 -1.01,-1.878 -0.789,-3.135c0.231,-1.31 0.875,-2.377 1.933,-3.201c1.18,-0.92 2.7,-1.381 4.56,-1.381c2.107,0 3.526,0.137 4.257,0.412l-0.691,2.112c-1.271,-0.425 -2.664,-0.638 -4.178,-0.638c-2.275,0 -3.547,0.762 -3.816,2.284c-0.13,0.735 0.09,1.351 0.657,1.847c0.371,0.309 1.226,0.779 2.568,1.407c1.529,0.718 2.604,1.399 3.225,2.046c0.935,0.974 1.278,2.169 1.028,3.586Z" style="fill:#002d37;fill-rule:nonzero;stroke:#002d37;stroke-width:1px;"/><path d="M74.037,18.189c-0.337,1.912 -1.179,3.588 -2.526,5.027c-1.347,1.439 -2.995,2.158 -4.943,2.158c-1.629,0 -2.649,-0.292 -3.059,-0.877l-0.133,0c-0.434,2.462 -0.795,4.658 -1.082,6.588l-2.497,0c0.619,-2.355 1.234,-5.264 1.844,-8.726c0.753,-4.268 1.114,-7.57 1.083,-9.908l2.396,-0.332l-0.032,1.315l0.132,0c1.036,-1 2.514,-1.501 4.435,-1.501c1.691,0 2.919,0.618 3.685,1.853c0.765,1.235 0.997,2.703 0.697,4.403Zm-2.42,0.319c0.231,-1.311 0.084,-2.433 -0.442,-3.367c-0.526,-0.934 -1.413,-1.401 -2.662,-1.401c-1.593,0 -2.821,0.482 -3.681,1.447c-0.383,2.975 -0.763,5.53 -1.139,7.664c0.611,0.602 1.492,0.903 2.643,0.903c1.461,0 2.643,-0.514 3.545,-1.541c0.903,-1.027 1.482,-2.262 1.736,-3.705Z" style="fill:#002d37;fill-rule:nonzero;stroke:#002d37;stroke-width:1px;"/><path d="M85.196,25.015l-2.099,0.08c-0.03,-0.434 -0.011,-0.846 0.058,-1.235l-0.133,0c-1.264,0.992 -2.834,1.487 -4.711,1.487c-1.018,0 -1.842,-0.298 -2.472,-0.896c-0.629,-0.598 -0.847,-1.45 -0.651,-2.557c0.24,-1.363 1.009,-2.459 2.306,-3.287c1.297,-0.828 3.512,-1.264 6.645,-1.308c0.064,-0.213 0.121,-0.456 0.169,-0.731c0.192,-1.089 0.03,-1.815 -0.486,-2.178c-0.516,-0.363 -1.363,-0.544 -2.54,-0.544c-1.39,0 -2.789,0.172 -4.195,0.518l0.549,-1.833c1.395,-0.381 2.956,-0.571 4.682,-0.571c1.576,0 2.736,0.325 3.48,0.976c0.745,0.651 0.978,1.76 0.702,3.327c-0.073,0.416 -0.226,1.171 -0.459,2.264c-0.233,1.094 -0.381,1.822 -0.445,2.185c-0.284,1.612 -0.417,3.046 -0.4,4.303Zm-1.897,-2.576c0.193,-1.346 0.384,-2.555 0.573,-3.626c-1.664,0 -2.952,0.124 -3.864,0.372c-1.53,0.443 -2.405,1.288 -2.625,2.537c-0.212,1.204 0.531,1.806 2.231,1.806c1.461,0 2.69,-0.363 3.685,-1.089Z" style="fill:#002d37;fill-rule:nonzero;stroke:#002d37;stroke-width:1px;"/><path d="M98.136,12.398l-0.97,2.112c-0.642,-0.275 -1.26,-0.412 -1.853,-0.412c-1.665,0 -2.885,0.793 -3.66,2.378c-0.718,4.072 -1.194,6.919 -1.426,8.539l-2.351,0c0.637,-2.806 1.092,-4.985 1.365,-6.534c0.37,-2.098 0.516,-4.108 0.439,-6.03l2.382,-0.332c-0.003,0.974 -0.034,1.625 -0.091,1.953l0.106,0c1.204,-1.408 2.444,-2.112 3.719,-2.112c0.673,0 1.453,0.146 2.34,0.438Z" style="fill:#002d37;fill-rule:nonzero;stroke:#002d37;stroke-width:1px;"/><path d="M108.234,25.015l-3.122,0c0.055,-0.31 -0.595,-1.492 -1.951,-3.546c-1.389,-2.116 -2.309,-3.174 -2.76,-3.174l-0.093,0c-0.335,1.895 -0.681,4.135 -1.039,6.72l-2.338,0c0.687,-3.24 1.327,-6.543 1.92,-9.907c0.604,-3.427 0.992,-6.353 1.163,-8.779l2.573,-0.133c-0.435,1.912 -1.138,5.627 -2.111,11.143l0.093,0c0.292,0 1.343,-0.746 3.151,-2.238c1.808,-1.492 2.739,-2.393 2.794,-2.703l2.935,0c-0.05,0.284 -0.875,1.018 -2.474,2.205c-1.497,1.107 -2.848,2.019 -4.055,2.736l-0.019,0.106c0.951,0.832 2.112,2.258 3.483,4.277c1.285,1.903 1.901,3.001 1.85,3.293Z" style="fill:#002d37;fill-rule:nonzero;stroke:#002d37;stroke-width:1px;"/></g></g></g><g id="Logo--dark-" serif:id="Logo (dark)"><g><g><circle cx="16.694" cy="16.254" r="16" style="fill:#fff;"/><path d="M16.901,0.256l0.206,0.003l0.205,0.007l0.205,0.009l0.204,0.012l0.204,0.014l0.202,0.017l0.202,0.019l0.201,0.022l0.201,0.024l0.2,0.027l0.199,0.029l0.198,0.031l0.197,0.034l0.197,0.037l0.195,0.039l0.195,0.041l0.194,0.043l0.193,0.046l0.192,0.048l0.191,0.051l0.19,0.053l0.19,0.055l0.188,0.057l0.187,0.06l0.187,0.061l0.185,0.065l0.184,0.066l0.184,0.068l0.182,0.071l0.181,0.073l0.18,0.074l0.179,0.077l0.177,0.08l0.177,0.081l0.175,0.083l0.175,0.085l0.173,0.088l0.172,0.089l0.17,0.092l0.17,0.093l0.168,0.095l0.167,0.098l0.165,0.099l0.165,0.101l0.163,0.103l0.161,0.105l0.16,0.107l0.159,0.109l0.158,0.111l0.156,0.112l0.155,0.115l0.153,0.116l0.152,0.118l0.15,0.119l0.149,0.122l0.148,0.123l0.146,0.125l0.144,0.127l0.143,0.128l0.141,0.13l0.14,0.131l0.138,0.134l0.137,0.135l0.135,0.136l0.133,0.138l0.132,0.14l0.13,0.142l0.128,0.142l0.127,0.145l0.125,0.146l0.123,0.147l0.121,0.149l0.12,0.151l0.118,0.151l0.116,0.154l0.114,0.154l0.113,0.157l0.11,0.157l0.109,0.159l0.107,0.16l0.105,0.162l0.103,0.163l0.102,0.164l0.099,0.166l0.097,0.167l0.096,0.168l0.093,0.169l0.091,0.171l0.09,0.172l0.087,0.173l0.086,0.174l0.083,0.176l0.081,0.176l0.079,0.178l0.077,0.179l0.075,0.18l0.073,0.181l0.07,0.182l0.069,0.183l0.066,0.185l0.064,0.185l0.062,0.186l0.059,0.188l0.058,0.188l0.055,0.189l0.053,0.19l0.05,0.192l0.048,0.192l0.046,0.193l0.044,0.194l0.041,0.194l0.039,0.196l0.036,0.197l0.034,0.197l0.032,0.198l0.029,0.199l0.027,0.2l0.024,0.2l0.022,0.201l0.019,0.202l0.017,0.203l0.014,0.203l0.011,0.204l0.01,0.205l0.006,0.206l0.004,0.206l0.001,0.206l-0.001,0.207l-0.004,0.206l-0.006,0.205l-0.01,0.205l-0.011,0.204l-0.014,0.204l-0.017,0.202l-0.019,0.202l-0.022,0.201l-0.024,0.201l-0.027,0.2l-0.029,0.199l-0.032,0.198l-0.034,0.197l-0.036,0.196l-0.039,0.196l-0.041,0.195l-0.044,0.194l-0.046,0.193l-0.048,0.192l-0.05,0.191l-0.053,0.19l-0.055,0.19l-0.058,0.188l-0.059,0.187l-0.062,0.187l-0.064,0.185l-0.066,0.184l-0.069,0.183l-0.07,0.183l-0.073,0.181l-0.075,0.18l-0.077,0.179l-0.079,0.177l-0.081,0.177l-0.083,0.175l-0.086,0.175l-0.087,0.173l-0.09,0.172l-0.091,0.17l-0.093,0.17l-0.096,0.168l-0.097,0.167l-0.099,0.165l-0.102,0.164l-0.103,0.163l-0.105,0.162l-0.107,0.16l-0.109,0.159l-0.11,0.158l-0.113,0.156l-0.114,0.155l-0.116,0.153l-0.118,0.152l-0.12,0.15l-0.121,0.149l-0.123,0.148l-0.125,0.146l-0.127,0.144l-0.128,0.143l-0.13,0.141l-0.132,0.14l-0.133,0.138l-0.135,0.137l-0.137,0.135l-0.138,0.133l-0.14,0.132l-0.141,0.13l-0.143,0.128l-0.144,0.127l-0.146,0.125l-0.148,0.123l-0.149,0.121l-0.15,0.12l-0.152,0.118l-0.153,0.116l-0.155,0.114l-0.156,0.113l-0.158,0.11l-0.159,0.109l-0.16,0.107l-0.161,0.105l-0.163,0.103l-0.165,0.101l-0.165,0.1l-0.167,0.097l-0.168,0.096l-0.17,0.093l-0.17,0.091l-0.172,0.09l-0.173,0.087l-0.175,0.085l-0.175,0.084l-0.177,0.081l-0.177,0.079l-0.179,0.077l-0.18,0.075l-0.181,0.073l-0.182,0.07l-0.184,0.069l-0.184,0.066l-0.185,0.064l-0.187,0.062l-0.187,0.059l-0.188,0.058l-0.19,0.055l-0.19,0.053l-0.191,0.05l-0.192,0.048l-0.193,0.046l-0.194,0.044l-0.195,0.041l-0.195,0.039l-0.197,0.036l-0.197,0.034l-0.198,0.032l-0.199,0.029l-0.2,0.027l-0.201,0.024l-0.201,0.022l-0.202,0.019l-0.202,0.017l-0.204,0.014l-0.204,0.011l-0.205,0.009l-0.205,0.007l-0.206,0.004l-0.207,0.001l-0.206,-0.001l-0.206,-0.004l-0.206,-0.007l-0.205,-0.009l-0.204,-0.011l-0.203,-0.014l-0.203,-0.017l-0.202,-0.019l-0.201,-0.022l-0.2,-0.024l-0.2,-0.027l-0.199,-0.029l-0.198,-0.032l-0.197,-0.034l-0.197,-0.036l-0.196,-0.039l-0.194,-0.041l-0.194,-0.044l-0.193,-0.046l-0.192,-0.048l-0.192,-0.05l-0.19,-0.053l-0.189,-0.055l-0.188,-0.058l-0.188,-0.059l-0.186,-0.062l-0.185,-0.064l-0.185,-0.066l-0.183,-0.069l-0.182,-0.07l-0.181,-0.073l-0.18,-0.075l-0.179,-0.077l-0.178,-0.079l-0.176,-0.081l-0.176,-0.084l-0.174,-0.085l-0.173,-0.087l-0.172,-0.09l-0.171,-0.091l-0.169,-0.093l-0.168,-0.096l-0.167,-0.097l-0.166,-0.1l-0.164,-0.101l-0.163,-0.103l-0.162,-0.105l-0.16,-0.107l-0.159,-0.109l-0.157,-0.11l-0.156,-0.113l-0.155,-0.114l-0.153,-0.116l-0.152,-0.118l-0.151,-0.12l-0.149,-0.121l-0.147,-0.123l-0.146,-0.125l-0.144,-0.127l-0.143,-0.128l-0.142,-0.13l-0.139,-0.132l-0.139,-0.133l-0.136,-0.135l-0.135,-0.137l-0.133,-0.138l-0.132,-0.14l-0.13,-0.141l-0.128,-0.143l-0.127,-0.144l-0.125,-0.146l-0.123,-0.148l-0.122,-0.149l-0.119,-0.15l-0.118,-0.152l-0.116,-0.153l-0.115,-0.155l-0.112,-0.156l-0.111,-0.158l-0.109,-0.159l-0.106,-0.16l-0.106,-0.162l-0.103,-0.163l-0.101,-0.164l-0.099,-0.165l-0.098,-0.167l-0.095,-0.168l-0.093,-0.17l-0.092,-0.17l-0.089,-0.172l-0.088,-0.173l-0.085,-0.175l-0.083,-0.175l-0.081,-0.177l-0.079,-0.177l-0.077,-0.179l-0.075,-0.18l-0.073,-0.181l-0.071,-0.183l-0.068,-0.183l-0.066,-0.184l-0.064,-0.185l-0.062,-0.187l-0.06,-0.187l-0.057,-0.188l-0.055,-0.19l-0.053,-0.19l-0.051,-0.191l-0.048,-0.192l-0.046,-0.193l-0.043,-0.194l-0.041,-0.195l-0.039,-0.196l-0.037,-0.196l-0.034,-0.197l-0.031,-0.198l-0.029,-0.199l-0.027,-0.2l-0.024,-0.201l-0.022,-0.201l-0.019,-0.202l-0.017,-0.202l-0.014,-0.204l-0.012,-0.204l-0.009,-0.205l-0.006,-0.205l-0.004,-0.206l-0.002,-0.207l0.002,-0.206l0.004,-0.206l0.006,-0.206l0.009,-0.205l0.012,-0.204l0.014,-0.203l0.017,-0.203l0.019,-0.202l0.022,-0.201l0.024,-0.2l0.027,-0.2l0.029,-0.199l0.031,-0.198l0.034,-0.197l0.037,-0.197l0.039,-0.196l0.041,-0.194l0.043,-0.194l0.046,-0.193l0.048,-0.192l0.051,-0.192l0.053,-0.19l0.055,-0.189l0.057,-0.188l0.06,-0.188l0.062,-0.186l0.064,-0.185l0.066,-0.185l0.068,-0.183l0.071,-0.182l0.073,-0.181l0.075,-0.18l0.077,-0.179l0.079,-0.178l0.081,-0.176l0.083,-0.176l0.085,-0.174l0.088,-0.173l0.089,-0.172l0.092,-0.171l0.093,-0.169l0.095,-0.168l0.098,-0.167l0.099,-0.166l0.101,-0.164l0.103,-0.163l0.106,-0.162l0.106,-0.16l0.109,-0.159l0.111,-0.157l0.112,-0.157l0.115,-0.154l0.116,-0.154l0.118,-0.151l0.119,-0.151l0.122,-0.149l0.123,-0.147l0.125,-0.146l0.127,-0.145l0.128,-0.142l0.13,-0.142l0.132,-0.14l0.133,-0.138l0.135,-0.136l0.136,-0.135l0.139,-0.134l0.139,-0.131l0.142,-0.13l0.143,-0.128l0.144,-0.127l0.146,-0.125l0.147,-0.123l0.149,-0.122l0.151,-0.119l0.152,-0.118l0.153,-0.116l0.155,-0.115l0.156,-0.112l0.157,-0.111l0.159,-0.109l0.16,-0.107l0.162,-0.105l0.163,-0.103l0.164,-0.101l0.166,-0.099l0.167,-0.098l0.168,-0.095l0.169,-0.093l0.171,-0.092l0.172,-0.089l0.173,-0.088l0.174,-0.085l0.176,-0.083l0.176,-0.081l0.178,-0.08l0.179,-0.077l0.18,-0.074l0.181,-0.073l0.182,-0.071l0.183,-0.068l0.185,-0.066l0.185,-0.065l0.186,-0.061l0.188,-0.06l0.188,-0.057l0.189,-0.055l0.19,-0.053l0.192,-0.051l0.192,-0.048l0.193,-0.046l0.194,-0.043l0.194,-0.041l0.196,-0.039l0.197,-0.037l0.197,-0.034l0.198,-0.031l0.199,-0.029l0.2,-0.027l0.2,-0.024l0.201,-0.022l0.202,-0.019l0.203,-0.017l0.203,-0.014l0.204,-0.012l0.205,-0.009l0.206,-0.007l0.206,-0.003l0.206,-0.002l0.207,0.002Zm-0.388,1.999l-0.181,0.004l-0.18,0.006l-0.179,0.008l-0.179,0.01l-0.178,0.012l-0.178,0.015l-0.176,0.017l-0.176,0.019l-0.176,0.021l-0.175,0.023l-0.174,0.026l-0.173,0.027l-0.172,0.03l-0.172,0.032l-0.171,0.034l-0.17,0.036l-0.17,0.038l-0.169,0.04l-0.168,0.042l-0.167,0.044l-0.166,0.046l-0.165,0.049l-0.165,0.05l-0.164,0.052l-0.162,0.054l-0.162,0.056l-0.161,0.058l-0.161,0.06l-0.159,0.061l-0.158,0.064l-0.158,0.065l-0.156,0.068l-0.155,0.069l-0.155,0.071l-0.153,0.073l-0.153,0.074l-0.151,0.077l-0.15,0.078l-0.15,0.08l-0.148,0.082l-0.147,0.083l-0.146,0.085l-0.145,0.087l-0.143,0.089l-0.143,0.09l-0.142,0.092l-0.14,0.093l-0.139,0.096l-0.138,0.097l-0.137,0.098l-0.135,0.1l-0.134,0.102l-0.133,0.103l-0.132,0.105l-0.131,0.106l-0.129,0.108l-0.127,0.109l-0.127,0.111l-0.125,0.113l-0.124,0.114l-0.122,0.115l-0.121,0.117l-0.12,0.118l-0.118,0.12l-0.117,0.121l-0.115,0.122l-0.114,0.124l-0.112,0.125l-0.111,0.126l-0.11,0.128l-0.108,0.129l-0.106,0.131l-0.105,0.132l-0.103,0.132l-0.102,0.135l-0.1,0.135l-0.098,0.137l-0.097,0.138l-0.095,0.139l-0.094,0.14l-0.092,0.142l-0.09,0.142l-0.089,0.144l-0.087,0.145l-0.085,0.146l-0.083,0.147l-0.082,0.148l-0.08,0.15l-0.078,0.15l-0.077,0.151l-0.074,0.153l-0.073,0.153l-0.071,0.155l-0.069,0.155l-0.068,0.156l-0.065,0.158l-0.064,0.158l-0.061,0.159l-0.06,0.16l-0.058,0.162l-0.056,0.161l-0.054,0.163l-0.052,0.164l-0.05,0.165l-0.048,0.165l-0.047,0.166l-0.044,0.167l-0.042,0.168l-0.04,0.169l-0.038,0.17l-0.036,0.17l-0.034,0.171l-0.032,0.171l-0.03,0.173l-0.027,0.173l-0.026,0.174l-0.023,0.175l-0.021,0.176l-0.019,0.176l-0.017,0.176l-0.015,0.178l-0.012,0.178l-0.01,0.179l-0.008,0.179l-0.006,0.18l-0.003,0.181l-0.002,0.181l0.002,0.182l0.003,0.18l0.006,0.18l0.008,0.18l0.01,0.179l0.012,0.178l0.015,0.177l0.017,0.177l0.019,0.176l0.021,0.175l0.023,0.175l0.026,0.174l0.027,0.173l0.03,0.173l0.032,0.172l0.034,0.171l0.036,0.17l0.038,0.169l0.04,0.169l0.042,0.168l0.044,0.167l0.047,0.166l0.048,0.166l0.05,0.165l0.052,0.163l0.054,0.163l0.056,0.162l0.058,0.161l0.06,0.16l0.061,0.159l0.064,0.159l0.065,0.157l0.068,0.156l0.069,0.156l0.071,0.154l0.073,0.154l0.074,0.152l0.077,0.151l0.078,0.151l0.08,0.149l0.082,0.148l0.083,0.147l0.085,0.146l0.087,0.145l0.089,0.144l0.09,0.143l0.092,0.141l0.094,0.14l0.095,0.14l0.097,0.138l0.098,0.136l0.1,0.136l0.102,0.134l0.103,0.133l0.105,0.132l0.106,0.13l0.108,0.129l0.11,0.128l0.111,0.127l0.112,0.125l0.114,0.123l0.115,0.123l0.117,0.121l0.118,0.119l0.12,0.119l0.121,0.116l0.122,0.116l0.124,0.114l0.125,0.112l0.127,0.111l0.127,0.109l0.129,0.108l0.131,0.107l0.132,0.104l0.133,0.104l0.134,0.101l0.135,0.1l0.137,0.099l0.138,0.097l0.139,0.095l0.14,0.094l0.142,0.092l0.142,0.09l0.144,0.088l0.145,0.087l0.146,0.086l0.147,0.083l0.149,0.082l0.149,0.08l0.15,0.078l0.151,0.076l0.153,0.075l0.153,0.073l0.155,0.071l0.155,0.069l0.156,0.067l0.158,0.066l0.158,0.063l0.159,0.062l0.161,0.06l0.161,0.058l0.162,0.056l0.162,0.054l0.164,0.052l0.165,0.05l0.165,0.048l0.166,0.046l0.167,0.044l0.168,0.042l0.169,0.041l0.17,0.038l0.17,0.036l0.171,0.034l0.172,0.031l0.172,0.03l0.173,0.028l0.174,0.025l0.175,0.024l0.176,0.021l0.176,0.019l0.176,0.017l0.178,0.014l0.178,0.013l0.179,0.01l0.179,0.008l0.18,0.006l0.181,0.003l0.181,0.001l0.182,-0.001l0.18,-0.003l0.18,-0.006l0.18,-0.008l0.179,-0.01l0.178,-0.013l0.177,-0.014l0.177,-0.017l0.176,-0.019l0.175,-0.021l0.175,-0.024l0.174,-0.025l0.173,-0.028l0.173,-0.03l0.172,-0.031l0.171,-0.034l0.17,-0.036l0.17,-0.038l0.168,-0.041l0.168,-0.042l0.167,-0.044l0.166,-0.046l0.166,-0.048l0.165,-0.05l0.163,-0.052l0.163,-0.054l0.162,-0.056l0.161,-0.058l0.16,-0.06l0.16,-0.062l0.158,-0.063l0.157,-0.066l0.157,-0.067l0.155,-0.069l0.154,-0.071l0.154,-0.073l0.152,-0.075l0.152,-0.076l0.15,-0.078l0.149,-0.08l0.148,-0.082l0.147,-0.083l0.146,-0.086l0.145,-0.087l0.144,-0.088l0.143,-0.09l0.141,-0.092l0.141,-0.094l0.139,-0.095l0.138,-0.097l0.136,-0.099l0.136,-0.1l0.134,-0.101l0.133,-0.104l0.132,-0.104l0.13,-0.107l0.129,-0.108l0.128,-0.109l0.127,-0.111l0.125,-0.112l0.124,-0.114l0.122,-0.115l0.121,-0.117l0.12,-0.119l0.118,-0.119l0.117,-0.121l0.115,-0.123l0.114,-0.123l0.112,-0.125l0.111,-0.127l0.109,-0.128l0.108,-0.129l0.107,-0.13l0.105,-0.132l0.103,-0.133l0.101,-0.134l0.101,-0.136l0.098,-0.136l0.097,-0.138l0.095,-0.139l0.094,-0.141l0.092,-0.141l0.09,-0.143l0.089,-0.144l0.086,-0.145l0.086,-0.146l0.083,-0.147l0.082,-0.148l0.08,-0.149l0.078,-0.151l0.076,-0.151l0.075,-0.152l0.073,-0.154l0.071,-0.154l0.069,-0.156l0.067,-0.156l0.066,-0.157l0.063,-0.159l0.062,-0.159l0.06,-0.16l0.058,-0.161l0.056,-0.162l0.054,-0.163l0.052,-0.164l0.05,-0.164l0.048,-0.165l0.046,-0.167l0.044,-0.167l0.043,-0.168l0.04,-0.168l0.038,-0.17l0.036,-0.17l0.034,-0.171l0.031,-0.172l0.03,-0.173l0.028,-0.173l0.025,-0.174l0.024,-0.175l0.021,-0.175l0.019,-0.176l0.017,-0.177l0.014,-0.177l0.013,-0.178l0.01,-0.179l0.008,-0.18l0.006,-0.18l0.003,-0.18l0.001,-0.182l-0.001,-0.181l-0.003,-0.181l-0.006,-0.18l-0.008,-0.179l-0.01,-0.179l-0.013,-0.178l-0.014,-0.177l-0.017,-0.177l-0.019,-0.176l-0.021,-0.176l-0.024,-0.175l-0.025,-0.174l-0.028,-0.173l-0.03,-0.172l-0.031,-0.172l-0.034,-0.171l-0.036,-0.171l-0.038,-0.169l-0.04,-0.169l-0.043,-0.168l-0.044,-0.167l-0.046,-0.166l-0.048,-0.165l-0.05,-0.165l-0.052,-0.164l-0.054,-0.163l-0.056,-0.162l-0.058,-0.161l-0.06,-0.16l-0.062,-0.159l-0.063,-0.158l-0.066,-0.158l-0.067,-0.156l-0.069,-0.155l-0.071,-0.155l-0.073,-0.153l-0.075,-0.153l-0.076,-0.151l-0.078,-0.15l-0.08,-0.15l-0.082,-0.148l-0.083,-0.147l-0.086,-0.146l-0.086,-0.145l-0.089,-0.144l-0.09,-0.142l-0.092,-0.142l-0.094,-0.14l-0.095,-0.139l-0.097,-0.138l-0.098,-0.137l-0.101,-0.135l-0.101,-0.135l-0.103,-0.132l-0.105,-0.132l-0.107,-0.131l-0.108,-0.129l-0.109,-0.128l-0.111,-0.126l-0.112,-0.125l-0.114,-0.124l-0.115,-0.122l-0.117,-0.121l-0.118,-0.12l-0.12,-0.118l-0.121,-0.117l-0.122,-0.115l-0.124,-0.114l-0.125,-0.113l-0.127,-0.11l-0.128,-0.11l-0.129,-0.108l-0.13,-0.106l-0.132,-0.105l-0.133,-0.103l-0.134,-0.102l-0.136,-0.1l-0.136,-0.098l-0.138,-0.097l-0.139,-0.096l-0.141,-0.093l-0.141,-0.092l-0.143,-0.09l-0.144,-0.089l-0.145,-0.087l-0.146,-0.085l-0.147,-0.083l-0.148,-0.082l-0.149,-0.08l-0.15,-0.078l-0.152,-0.077l-0.152,-0.074l-0.154,-0.073l-0.154,-0.071l-0.155,-0.069l-0.157,-0.068l-0.157,-0.065l-0.158,-0.064l-0.16,-0.061l-0.16,-0.06l-0.161,-0.058l-0.162,-0.056l-0.163,-0.054l-0.163,-0.052l-0.165,-0.05l-0.165,-0.049l-0.167,-0.046l-0.167,-0.044l-0.168,-0.042l-0.168,-0.04l-0.17,-0.038l-0.17,-0.036l-0.171,-0.034l-0.172,-0.032l-0.173,-0.03l-0.173,-0.027l-0.174,-0.026l-0.175,-0.023l-0.175,-0.021l-0.176,-0.019l-0.177,-0.017l-0.177,-0.015l-0.178,-0.012l-0.179,-0.01l-0.18,-0.008l-0.18,-0.006l-0.18,-0.004l-0.182,-0.001l-0.181,0.001Z" style="fill:#002d37;"/></g></g><g><path d="M20.863,5.981c3.975,1.641 6.776,5.557 6.776,10.121c0,6.041 -4.904,10.945 -10.945,10.945c-0.908,0 -4.465,3.279 -4.465,3.279l10.722,-17.399l-6.257,1.293l4.169,-8.239Z" style="fill:#3ac7e5;"/></g><g><path d="M12.622,26.412c-4.026,-1.617 -6.872,-5.559 -6.872,-10.161c0,-6.04 4.904,-10.944 10.944,-10.944c0.348,0 5.165,-3.008 5.287,-2.981l-11.736,15.458l5.959,-1.105l-3.582,9.733Z" style="fill:#002d37;"/></g></g></g></svg>