<?xml version="1.0" encoding="UTF-8" standalone="no"?><!DOCTYPE svg PUBLIC "-//W3C//DTD SVG 1.1//EN" "http://www.w3.org/Graphics/SVG/1.1/DTD/svg11.dtd"><svg width="100%" height="100%" viewBox="0 0 200 200" version="1.1" xmlns="http://www.w3.org/2000/svg" xmlns:xlink="http://www.w3.org/1999/xlink" xml:space="preserve" xmlns:serif="http://www.serif.com/" style="fill-rule:evenodd;clip-rule:evenodd;stroke-linejoin:round;stroke-miterlimit:1.41421;"><rect id="Transparent" x="0" y="0" width="200" height="200" style="fill:none;"/><clipPath id="_clip1"><rect x="0" y="0" width="200" height="200"/></clipPath><g clip-path="url(#_clip1)"><circle cx="100" cy="100" r="100" style="fill:#fff;"/><path d="M127.978,32.019c26.683,11.013 45.481,37.296 45.481,67.935c0,40.544 -32.916,73.46 -73.459,73.46c-6.1,0 -29.968,22.01 -29.968,22.01l71.96,-116.783l-41.992,8.679l27.978,-55.301Z" style="fill:#06b8e0;"/><path d="M72.666,168.152c-27.024,-10.854 -46.125,-37.313 -46.125,-68.198c0,-40.543 32.916,-73.459 73.459,-73.459c2.336,0 34.664,-20.19 35.487,-20.005l-78.776,103.75l39.995,-7.416l-24.04,65.328Z" style="fill:#3b4747;"/></g></svg>